<?xml version="1.0" encoding="UTF-8"?>
<svg version="1.1" xmlns="http://www.w3.org/2000/svg" width="512" height="512">
<path d="M0 0 C6.34203899 6.05478457 12.06046026 12.31973496 16.55078125 19.890625 C17.08396973 20.7870874 17.08396973 20.7870874 17.62792969 21.70166016 C23.671753 32.02378086 27.82318277 42.25146029 30.55078125 53.890625 C30.91816406 55.40849609 30.91816406 55.40849609 31.29296875 56.95703125 C36.27901325 81.51159288 30.59974641 106.46234533 18.87109375 128.16796875 C17.33261282 130.83619972 17.33261282 130.83619972 17.55078125 133.890625 C18.73334119 136.34377663 19.96031421 138.73832008 21.23828125 141.140625 C32.5388093 163.19407842 36.07529151 186.89667669 35.24804688 211.43359375 C35.15323924 217.43807757 35.37837633 221.70191412 38.49082947 226.88786316 C42.25855511 234.00692015 41.88353372 242.52976526 41.96484375 250.36328125 C41.9842099 251.5269371 42.00357605 252.69059296 42.02352905 253.88951111 C42.08293046 257.57730969 42.12955202 261.26514015 42.17578125 264.953125 C42.21399732 267.46550781 42.25305113 269.97787802 42.29296875 272.49023438 C42.38859934 278.62358547 42.47376041 284.75701348 42.55078125 290.890625 C43.22871735 291.05732697 43.90665344 291.22402893 44.60513306 291.39578247 C47.72571623 292.16477205 50.84527861 292.93782887 53.96484375 293.7109375 C55.030979 293.97302002 56.09711426 294.23510254 57.19555664 294.50512695 C83.86388633 301.12883379 109.95100759 311.04775337 129.55078125 330.890625 C130.16566406 331.49519531 130.78054688 332.09976562 131.4140625 332.72265625 C140.9803936 342.88224819 144.08750385 355.49843904 143.859375 369.01171875 C142.59023154 384.96437003 133.78610975 397.16017915 122.18652344 407.5078125 C97.08590671 428.72719954 59.13804484 438.94378162 27.19140625 442.69140625 C13.88596799 444.31627863 7.5851643 447.02210134 -0.99414062 457.28808594 C-10.9717504 468.27684946 -27.31183267 475.08578758 -41.13671875 479.765625 C-41.97912109 480.05195801 -42.82152344 480.33829102 -43.68945312 480.63330078 C-55.20158539 484.3406354 -66.45787009 485.2820177 -78.51171875 485.265625 C-79.19042023 485.26508118 -79.8691217 485.26453735 -80.56838989 485.26397705 C-91.90990066 485.22234338 -102.57454442 484.26632671 -113.44921875 480.890625 C-114.13435547 480.68163574 -114.81949219 480.47264648 -115.52539062 480.25732422 C-130.2506734 475.60778484 -143.87941106 468.13370938 -155.44921875 457.890625 C-156.34769531 457.10042969 -157.24617187 456.31023437 -158.171875 455.49609375 C-165.10758317 449.31882273 -165.10758317 449.31882273 -166.67871094 447.34960938 C-169.25448357 445.2270477 -171.62580641 445.08179215 -174.90625 444.56640625 C-176.24485913 444.34513433 -177.58339772 444.12343533 -178.921875 443.90136719 C-179.98172607 443.73187561 -179.98172607 443.73187561 -181.06298828 443.55895996 C-219.6012196 437.32206543 -267.73316194 427.21773739 -292.44921875 393.890625 C-300.17457478 381.1873627 -302.74444226 369.65768806 -300.44921875 354.890625 C-295.99735721 336.62347574 -282.90063201 324.52454438 -267.45068359 315.07519531 C-240.8466375 299.32954617 -209.74343357 292.06930464 -179.51953125 287.0546875 C-178.41230713 286.86652466 -178.41230713 286.86652466 -177.28271484 286.67456055 C-175.35643551 286.35426639 -173.42637146 286.05696165 -171.49609375 285.76171875 C-168.08811256 284.78738567 -166.6810002 283.59196443 -164.44921875 280.890625 C-165.37863281 280.45492188 -166.30804688 280.01921875 -167.265625 279.5703125 C-178.6876256 274.11862248 -186.68878882 269.24746944 -191.44921875 256.890625 C-192.24753696 253.67042664 -192.81515024 250.42296882 -193.37036133 247.15307617 C-193.53839421 246.19542201 -193.7064271 245.23776785 -193.87955189 244.25109386 C-195.95261196 232.26142913 -197.73831343 220.22657903 -199.5234375 208.19140625 C-199.89625291 205.69326098 -200.26928895 203.19514862 -200.64253235 200.69706726 C-201.41702418 195.50809524 -202.18905404 190.31876492 -202.95922852 185.12915039 C-203.84500561 179.16166939 -204.73519569 173.19486506 -205.62805814 167.22844058 C-206.49592479 161.42818086 -207.36022205 155.6273944 -208.22300148 149.82637596 C-208.58689654 147.38196657 -208.95168699 144.93769029 -209.31741905 142.49355507 C-209.82754275 139.08119166 -210.33360235 135.66824882 -210.83862305 132.25512695 C-210.98770615 131.26325378 -211.13678925 130.27138062 -211.29039001 129.24945068 C-215.12198133 103.199445 -215.12198133 103.199445 -207.2734375 91.24609375 C-198.31892565 79.68384398 -187.25861028 76.74774049 -173.44921875 73.890625 C-173.43503906 73.02824219 -173.42085937 72.16585937 -173.40625 71.27734375 C-172.25089021 41.7063782 -159.00789851 17.40198258 -137.69921875 -2.734375 C-98.86469981 -36.66977001 -37.67341498 -34.70392561 0 0 Z M-239.1953125 356.5703125 C-239.81599609 357.22386719 -239.81599609 357.22386719 -240.44921875 357.890625 C-236.9867621 366.12279235 -226.80525771 369.32333129 -219.09765625 372.5 C-209.03720213 376.47149912 -209.03720213 376.47149912 -198.44921875 377.890625 C-198.42939941 377.17632324 -198.40958008 376.46202148 -198.38916016 375.72607422 C-197.62458571 349.50666217 -197.62458571 349.50666217 -195.44921875 337.890625 C-209.00702253 337.890625 -229.59689763 347.33693802 -239.1953125 356.5703125 Z M39.55078125 338.890625 C38.16870768 342.74690021 38.86755353 345.96505081 39.48828125 349.953125 C40.8284222 359.27050431 40.73455198 368.49789889 40.55078125 377.890625 C46.01086971 377.27114267 50.96976587 376.00843532 56.17578125 374.265625 C56.95904785 374.00346191 57.74231445 373.74129883 58.54931641 373.47119141 C66.90507385 370.5699578 76.97713997 367.05673521 82.55078125 359.890625 C82.5009891 357.25662007 81.89962561 356.25532593 80.08984375 354.36328125 C71.65705079 348.15055011 62.51233199 344.7539105 52.61328125 341.578125 C51.78401123 341.31128906 50.95474121 341.04445313 50.1003418 340.76953125 C49.31183838 340.52460938 48.52333496 340.2796875 47.7109375 340.02734375 C47.00590088 339.80780029 46.30086426 339.58825684 45.57446289 339.36206055 C43.24781156 338.73936889 43.24781156 338.73936889 39.55078125 338.890625 Z " fill="#020201" transform="translate(330.44921875,27.109375)"/>
<path d="M0 0 C-0.63028587 1.68076231 -1.30959426 3.34302621 -2 5 C-2.1753125 5.63212402 -2.350625 6.26424805 -2.53125 6.91552734 C-3.40150998 9.39210278 -4.26047709 11.01619066 -6 13 C-10.26108515 14.91184706 -14.6827558 15.72657929 -19.25 16.625 C-21.8009492 17.19528666 -24.35045294 17.77207918 -26.8984375 18.35546875 C-28.1265918 18.63181152 -29.35474609 18.9081543 -30.62011719 19.19287109 C-43.18830894 22.19420322 -57.80024089 27.62611296 -67 37 C-67.66 37 -68.32 37 -69 37 C-69.268125 37.556875 -69.53625 38.11375 -69.8125 38.6875 C-71 41 -71 41 -72.546875 43.28125 C-75.31681177 48.46371235 -74.88147076 54.71804598 -73.37890625 60.3125 C-68.43726456 71.55748019 -55.74115899 77.3689272 -44.97705078 81.84033203 C1.9488484 100.01863071 56.36030699 101.24787443 106.01548767 101.30962753 C108.08947571 101.31245163 110.16344481 101.31797325 112.23742676 101.32363892 C128.4371826 101.3557858 144.45085818 100.86412972 160.57281494 99.24276733 C163.80387242 98.91959659 167.03867619 98.64270657 170.2734375 98.359375 C183.23554549 97.10527712 196.05140633 95.30038221 208.875 93.0625 C209.58098328 92.94120728 210.28696655 92.81991455 211.01434326 92.69494629 C231.79664325 89.09367692 263.73587062 83.15909555 277.8203125 65.75 C281.1694817 60.76519003 282.93366918 56.50135834 282.515625 50.44921875 C280.91660139 42.85385662 276.36364743 37.21012884 270 33 C259.54388678 26.58639895 248.72559496 22.48025916 237 19 C236.2869873 18.78827148 235.57397461 18.57654297 234.83935547 18.35839844 C230.90342572 17.19974592 226.95787482 16.08173428 223 15 C223 11.04 223 7.08 223 3 C247.68057213 7.64996286 276.07443451 15.61006153 295 33 C295.6290625 33.55042969 296.258125 34.10085938 296.90625 34.66796875 C303.11025248 40.41192867 307.53318302 47.35227985 308.23828125 55.8828125 C308.4778583 66.34854692 306.69502653 73.19799367 299.8125 81.1875 C277.56622024 104.37580463 243.68703648 112.79367887 213.11474609 118.42529297 C210.1114684 118.97943278 207.11224408 119.55193023 204.11328125 120.12890625 C202.24238108 120.48279577 200.37129542 120.83570645 198.5 121.1875 C197.69006592 121.34234863 196.88013184 121.49719727 196.0456543 121.65673828 C130.20400814 133.70661836 54.76178759 132.80813889 -10.5625 117.6875 C-11.50649658 117.4694873 -12.45049316 117.25147461 -13.4230957 117.02685547 C-16.28415324 116.359731 -19.14257689 115.68251191 -22 115 C-22.84079102 114.80003418 -23.68158203 114.60006836 -24.54785156 114.39404297 C-50.25463551 108.19733329 -82.17574433 98.76714904 -97 75 C-100.90249613 67.96156949 -102.32448684 60.98736338 -101 53 C-94.9701872 35.82675225 -80.71457365 25.89832012 -64.9375 18.3125 C-49.99684261 11.41992063 -34.44730484 6.94562874 -18.5 3.0625 C-17.24074707 2.75554199 -15.98149414 2.44858398 -14.68408203 2.13232422 C-4.86561582 -0.18442254 -4.86561582 -0.18442254 0 0 Z " fill="#FBE739" transform="translate(148,333)"/>
<path d="M0 0 C17.28999407 -0.79081054 38.15051185 1.9268671 52.08642578 13.09863281 C61.69975073 30.14710015 63.85006783 51.72332474 59.12158203 70.57128906 C58.60917969 72.31732422 58.60917969 72.31732422 58.08642578 74.09863281 C57.88774902 74.78296387 57.68907227 75.46729492 57.484375 76.17236328 C53.31534306 90.06601355 53.31534306 90.06601355 48.58642578 93.28613281 C46.53564453 94.22753906 46.53564453 94.22753906 44.08642578 95.09863281 C43.04099609 95.52015625 41.99556641 95.94167969 40.91845703 96.37597656 C37.33956113 97.746364 33.74099021 98.94643536 30.08642578 100.09863281 C29.11318359 100.4221875 28.13994141 100.74574219 27.13720703 101.07910156 C5.61426365 107.19977839 -19.28707951 103.35569537 -38.91357422 93.09863281 C-51.73069151 85.48160311 -62.68464636 75.71661061 -66.91357422 61.09863281 C-68.87209787 48.86566421 -67.14205022 38.26643675 -59.91357422 28.09863281 C-47.0058277 12.21533264 -27.42205841 2.92781834 -7.28857422 0.41113281 C-4.86010496 0.23239748 -2.43157088 0.12533231 0 0 Z " fill="#01A7F2" transform="translate(284.91357421875,50.9013671875)"/>
<path d="M0 0 C4.56515088 0.98583486 9.05894063 2.20354888 13.5625 3.4375 C15.95901323 4.08434083 18.35613004 4.72895048 20.75390625 5.37109375 C21.80908447 5.65911865 22.8642627 5.94714355 23.95141602 6.24389648 C26.95649801 6.98921073 29.94481449 7.5076585 33 8 C33.00546844 9.16605522 33.00546844 9.16605522 33.01104736 10.35566711 C33.04910536 17.72530259 33.10615697 25.09444243 33.18390274 32.46375751 C33.22320866 36.25132652 33.25547886 40.03866892 33.27099609 43.82641602 C33.2862754 47.4901458 33.32091586 51.15325186 33.36830902 54.81670189 C33.38300789 56.20588916 33.39103432 57.59516554 33.39188385 58.98443031 C33.4077376 71.92515332 35.67124355 82.56084407 45 92 C55.04371354 100.39118297 65.94441238 102.40797138 78.74609375 101.34472656 C87.38635369 100.023231 95.29297968 95.00432833 100.6015625 88.1328125 C102.96010275 84.53570921 105.0696152 80.84297804 107 77 C108.24716797 77.63228516 108.24716797 77.63228516 109.51953125 78.27734375 C110.60621094 78.82519531 111.69289063 79.37304688 112.8125 79.9375 C114.43091797 80.75541016 114.43091797 80.75541016 116.08203125 81.58984375 C123.98406008 85.40862877 134.85201831 85.32462687 143.33984375 83.140625 C145.64966506 82.20448597 147.82333039 81.20980074 150 80 C150.66 79.67 151.32 79.34 152 79 C152.0270491 82.06255961 152.04686298 85.1248786 152.0625 88.1875 C152.07087891 89.05181641 152.07925781 89.91613281 152.08789062 90.80664062 C152.12112761 99.48149261 152.12112761 99.48149261 151 103 C147.69480239 104.6525988 143.98379038 104.69994826 140.34765625 105.12109375 C139.4600914 105.22591568 138.57252655 105.33073761 137.6580658 105.43873596 C135.75916827 105.6616981 133.86003478 105.88265802 131.96069336 106.10180664 C129.15978345 106.42623181 126.36017777 106.76044639 123.56054688 107.09570312 C99.45639864 109.93493513 75.52087847 111.35910932 51.25 111.25 C50.03253082 111.24723053 48.81506165 111.24446106 47.56069946 111.24160767 C28.96695522 111.19215824 10.51428343 110.81750165 -8 109 C-9.20333984 108.88221191 -10.40667969 108.76442383 -11.64648438 108.64306641 C-18.50743773 107.95282057 -25.35604959 107.18807593 -32.19970703 106.34375 C-34.69296298 106.03769033 -37.18749787 105.75043417 -39.68359375 105.46875 C-40.94300781 105.3140625 -42.20242187 105.159375 -43.5 105 C-45.03140625 104.814375 -45.03140625 104.814375 -46.59375 104.625 C-49.44260975 103.88503643 -50.26347479 103.36128074 -52 101 C-52.41992188 98.0234375 -52.41992188 98.0234375 -52.46875 94.375 C-52.47853882 93.72019653 -52.48832764 93.06539307 -52.49841309 92.39074707 C-52.52016727 90.25996852 -52.51382264 88.13083092 -52.5 86 C-52.49790527 85.27514404 -52.49581055 84.55028809 -52.49365234 83.8034668 C-52.3820357 65.14488486 -48.21937837 50.16923106 -39 34 C-38.44441406 33.00484375 -37.88882813 32.0096875 -37.31640625 30.984375 C-30.61940007 19.74239821 -14.48120599 -1.79133102 0 0 Z " fill="#FC9600" transform="translate(202,307)"/>
<path d="M0 0 C0.804375 0.68449219 0.804375 0.68449219 1.625 1.3828125 C1.625 1.7128125 1.625 2.0428125 1.625 2.3828125 C1.00238281 2.310625 0.37976563 2.2384375 -0.26171875 2.1640625 C-31.18887898 -0.94159376 -62.00336499 2.74937581 -86.99145508 22.60473633 C-98.86722248 32.44219565 -107.35307292 45.11031876 -110.375 60.3828125 C-111.76531872 75.51792765 -107.99466458 90.58975995 -98.5625 102.6953125 C-97.18942032 104.27784501 -95.79360851 105.84096074 -94.375 107.3828125 C-93.37533203 108.51976562 -93.37533203 108.51976562 -92.35546875 109.6796875 C-76.97409472 126.23107328 -53.21236759 135.51292429 -30.875 136.69140625 C-19.66079454 136.9879091 -8.4960415 135.68297602 2.625 134.3828125 C-7.41110607 145.29162344 -26.27457007 152.56177257 -40.98364258 153.55981445 C-68.55935205 154.16637856 -90.41030924 148.41690954 -111.00073242 129.20581055 C-120.34687815 120.16647904 -126.52191773 109.42290209 -131.375 97.3828125 C-131.67148438 96.64804688 -131.96796875 95.91328125 -132.2734375 95.15625 C-140.03401097 74.02597571 -137.3030636 50.86397494 -128.140625 30.734375 C-125.0593116 24.88533319 -121.38382314 19.64040178 -117.375 14.3828125 C-116.82199219 13.64417969 -116.26898438 12.90554687 -115.69921875 12.14453125 C-87.71860335 -22.50144166 -34.69636972 -25.45161332 0 0 Z " fill="#F2F2F2" transform="translate(311.375,33.6171875)"/>
<path d="M0 0 C0.66 0 1.32 0 2 0 C2.98151802 1.10836035 3.90927902 2.26445604 4.8125 3.4375 C14.79069071 14.99439025 29.68444488 21.29229981 43.06396484 28.0244751 C45.20044377 29.10099914 47.33470322 30.18184647 49.46875 31.26318359 C53.51769724 33.31394166 57.56976916 35.3584028 61.62423706 37.39822388 C63.24132776 38.21183927 64.85797119 39.02634428 66.47415161 39.84176636 C68.76318017 40.99518995 71.05497183 42.14292624 73.34765625 43.2890625 C74.37294434 43.80704659 74.37294434 43.80704659 75.41894531 44.335495 C81.37506034 47.29968965 86.50220761 49.28758587 93.1875 49.3125 C94.21230469 49.32925781 95.23710937 49.34601563 96.29296875 49.36328125 C99.65088256 49.03421277 102.4962028 48.38456262 105.73168945 47.47729492 C106.71917679 47.20213547 107.70666412 46.92697601 108.72407532 46.64347839 C109.47513046 46.43113052 110.22618561 46.21878265 111 46 C111.09281592 57.59630792 111.16382398 69.19252697 111.20724869 80.78913116 C111.2280939 86.17433321 111.25635573 91.55928049 111.30175781 96.94433594 C111.34532461 102.1444498 111.36916016 107.34431911 111.37950897 112.54460144 C111.38688088 114.52528226 111.40127651 116.5059502 111.42292023 118.48652649 C111.45209818 121.26800107 111.45594999 124.04847431 111.45410156 126.83007812 C111.46848267 127.64288239 111.48286377 128.45568665 111.49768066 129.29312134 C111.45072811 135.85332145 109.56579677 141.02666057 105.25390625 146.0234375 C104.69574219 146.46945312 104.13757813 146.91546875 103.5625 147.375 C102.72912109 148.06722656 102.72912109 148.06722656 101.87890625 148.7734375 C96.24024744 152.45439149 90.56242073 152.89278375 84 152 C77.69290537 149.52183297 72.8435021 144.78458788 69.88414001 138.70921326 C68.85580629 135.55815652 68.74154856 132.96642321 68.72875977 129.65258789 C68.71347984 127.76021141 68.71347984 127.76021141 68.69789124 125.8296051 C68.69695024 125.16056215 68.69600925 124.4915192 68.69503975 123.80220222 C68.69135873 121.69545705 68.67458587 119.58917537 68.65428162 117.48252869 C68.59903283 111.49568314 68.56820453 105.50877058 68.54370117 99.52172852 C68.52778239 95.85239097 68.49752167 92.1833847 68.45893669 88.51421928 C68.44732779 87.12087978 68.4413567 85.72748095 68.44125557 84.33409309 C68.44106245 82.38161733 68.42122576 80.42917383 68.40063477 78.47680664 C68.39556412 77.36825821 68.39049347 76.25970978 68.38526917 75.11756897 C67.94282795 71.53736811 66.73472649 69.13973804 65 66 C64.67 65.01 64.34 64.02 64 63 C61.74541621 61.84287633 61.74541621 61.84287633 59 61 C58.08605469 60.69320312 57.17210937 60.38640625 56.23046875 60.0703125 C50.25473831 58.21392384 44.26068149 56.507343 38.1875 55 C37.19230347 54.7527417 37.19230347 54.7527417 36.17700195 54.50048828 C32.67004224 53.63691262 29.15774925 52.8042684 25.63671875 52 C24.92298096 51.83242188 24.20924316 51.66484375 23.47387695 51.4921875 C21.492466 51.02754582 19.50802963 50.57586069 17.5234375 50.125 C11.0331597 48.05271618 6.96230586 44.46155673 3 39 C0.3972795 33.84809041 -0.36368204 30.18560972 -0.29296875 24.31640625 C-0.28872391 23.61603745 -0.28447906 22.91566864 -0.28010559 22.19407654 C-0.26347156 19.98314 -0.2258518 17.77315543 -0.1875 15.5625 C-0.17243326 14.05274765 -0.15874836 12.54298084 -0.14648438 11.03320312 C-0.11361921 7.35516566 -0.06194582 3.67767593 0 0 Z " fill="#F3F3F3" transform="translate(183,240)"/>
<path d="M0 0 C6.43813387 5.45841785 6.43813387 5.45841785 9.1640625 8.0859375 C16.11376933 14.71024 23.72996245 19.2585118 32 24 C35.29851171 26.1990078 35.72214695 27.17451393 37.25 30.6875 C44.48196587 45.42633102 60.99109748 50.5789728 75.06738281 57.20483398 C83.52414375 61.201554 91.79888601 65.50428143 100 70 C100.63526611 70.33596191 101.27053223 70.67192383 101.92504883 71.01806641 C107.12006731 73.8359107 109.87090917 76.49827856 112 82 C112.8801497 87.00295617 112.61946503 90.73724436 110.375 95.3125 C103.07787975 103.56976765 103.07787975 103.56976765 98.18530273 104.25366211 C91.5042781 104.51667111 86.93018848 102.58913188 81.0625 99.5625 C80.1031958 99.08458008 79.1438916 98.60666016 78.15551758 98.11425781 C75.99295324 97.03474561 73.8342376 95.94750101 71.67871094 94.85400391 C68.31748236 93.15246386 64.93717828 91.4917177 61.55256653 89.83726501 C58.51473835 88.35184381 55.48102475 86.85814137 52.44796753 85.36300659 C50.95752977 84.62914644 49.46611456 83.89726765 47.97366333 83.16751099 C39.5044716 79.01715577 31.51505699 74.76694584 24 69 C23.28207275 68.4548877 22.56414551 67.90977539 21.82446289 67.34814453 C10.74286259 58.69678262 1.4940993 42.85977348 -0.76171875 29.07421875 C-1.50098098 19.53652413 -1.92127664 9.40657041 0 0 Z " fill="#CDD5D9" transform="translate(182,169)"/>
<path d="M0 0 C0.09282018 11.46592332 0.16382612 22.93175674 0.20724869 34.39797974 C0.22809298 39.72264917 0.2563531 45.04706089 0.30175781 50.37158203 C0.34532794 55.51334149 0.36916085 60.65485358 0.37950897 65.79678345 C0.38688029 67.75513602 0.40127477 69.71347559 0.42292023 71.67172241 C0.45210268 74.4220672 0.45594982 77.17139945 0.45410156 79.921875 C0.47567322 81.12705528 0.47567322 81.12705528 0.49768066 82.35658264 C0.4504313 88.88595172 -1.45603322 94.05195796 -5.74609375 99.0234375 C-11.56264267 103.67130338 -15.89662856 105.5062844 -23.4453125 105.3046875 C-30.57891921 104.45389037 -34.92650493 100.51312816 -39.5546875 95.29296875 C-42.93706 89.92688049 -43.30035642 84.04954147 -43.31884766 77.86157227 C-43.32889328 77.08026443 -43.3389389 76.2989566 -43.34928894 75.49397278 C-43.37995599 72.9347908 -43.3971098 70.37571263 -43.4140625 67.81640625 C-43.43278744 66.03278216 -43.45236183 64.2491668 -43.4727478 62.46556091 C-43.52393499 57.78855555 -43.56363226 53.1115215 -43.60089111 48.43438721 C-43.64101512 43.65475447 -43.69206905 38.87523966 -43.7421875 34.09570312 C-43.83878784 24.73055175 -43.9232432 15.36533358 -44 6 C-42.37433394 6.47690204 -40.74948689 6.95659666 -39.125 7.4375 C-38.22007812 7.70433594 -37.31515625 7.97117187 -36.3828125 8.24609375 C-34 9 -34 9 -32 10 C-21.57413456 11.02083113 -12.79375492 9.07155618 -4.375 2.75 C-3.74335938 2.22921875 -3.11171875 1.7084375 -2.4609375 1.171875 C-1 0 -1 0 0 0 Z " fill="#F1F1F1" transform="translate(354,271)"/>
<path d="M0 0 C0.30292969 1.00417969 0.60585937 2.00835937 0.91796875 3.04296875 C1.34048441 4.4246816 1.76371485 5.80617599 2.1875 7.1875 C2.40801025 7.91348389 2.62852051 8.63946777 2.85571289 9.38745117 C4.28765264 14.00698693 5.99271468 18.37796205 7.9375 22.8125 C10.47916968 29.24610138 9.79699069 33.49784529 8 40 C5.89836344 47.89729239 5.72060748 55.65278956 5.79418945 63.77929688 C5.81264895 65.89204796 5.8146971 68.00436346 5.81445312 70.1171875 C5.59553049 76.51758209 5.59553049 76.51758209 6.50120544 82.7802124 C7.17305005 85.77012538 7.12478604 88.59327552 7.12597656 91.65771484 C7.1278447 92.31856079 7.12971283 92.97940674 7.13163757 93.66027832 C7.13563357 95.09308865 7.13771568 96.52590531 7.13809967 97.95872116 C7.14153784 101.02505267 7.1629406 104.09117647 7.18333054 107.15743446 C7.22116771 112.8570987 7.25263235 118.55654326 7.25048828 124.25634766 C7.24969304 128.22946236 7.27341104 132.20181674 7.3123703 136.17473221 C7.32271512 137.67589508 7.32444092 139.177147 7.31671906 140.67832565 C7.26544777 151.76192461 9.00016223 161.00032445 14 171 C2.4225216 167.83548924 2.4225216 167.83548924 -1 163 C-5.02886801 154.09128195 -5.81914319 144.53861315 -6.78662109 134.93945312 C-7.18047173 131.35964824 -7.8257087 127.82729019 -8.4453125 124.28125 C-9.12545172 120.25789124 -9.71854986 116.2243338 -10.3125 112.1875 C-11.38845938 104.89799769 -12.54633125 97.62481111 -13.74194336 90.35400391 C-16.18887394 75.45726417 -18.37388137 60.53950418 -20.38818359 45.578125 C-20.48894196 44.83471359 -20.58970032 44.09130219 -20.69351196 43.32536316 C-20.96673563 41.30614249 -21.23689177 39.28650742 -21.50683594 37.2668457 C-21.88398709 34.76849941 -22.38090007 32.43910853 -23 30 C-23.76523268 23.2559711 -24.47155285 15.52977129 -21.82421875 9.1796875 C-16.64983582 2.68392277 -8.1603214 -0.35351573 0 0 Z " fill="#CCD5D9" transform="translate(159,119)"/>
<path d="M0 0 C3 1 3 1 4.46484375 3.6328125 C8.10591419 12.26707503 10.93812486 20.83060333 13 30 C13.226875 30.97582031 13.45375 31.95164063 13.6875 32.95703125 C15.13473147 40.46454451 15.2344874 48.0031685 15.3125 55.625 C15.33022461 56.67413574 15.34794922 57.72327148 15.36621094 58.80419922 C15.35736478 68.19439189 14.1740821 77.55478335 8 85 C2.56546318 89.78756815 -0.78635461 90.41242106 -7.9453125 90.34375 C-12.31096365 89.85247468 -15.18512898 88.37157253 -18 85 C-20.85154109 80.28154649 -21.36628814 76.49210031 -21.15234375 71.1015625 C-21.12409742 69.55338999 -21.09611148 68.0052127 -21.06835938 66.45703125 C-21.00689326 64.05718047 -20.93853044 61.657751 -20.86303711 59.25830078 C-20.52936808 47.7556888 -21.65616141 38.0472784 -25 27 C-25.3798817 25.68248125 -25.7574815 24.36430197 -26.13256836 23.04541016 C-26.4188208 22.0404248 -26.70507324 21.03543945 -27 20 C-26.11699219 19.45472656 -25.23398437 18.90945312 -24.32421875 18.34765625 C-15.65397152 12.92450637 -7.26848571 7.26848571 0 0 Z " fill="#CCD5D9" transform="translate(333,174)"/>
<path d="M0 0 C0.09282018 11.46592332 0.16382612 22.93175674 0.20724869 34.39797974 C0.22809298 39.72264917 0.2563531 45.04706089 0.30175781 50.37158203 C0.34532794 55.51334149 0.36916085 60.65485358 0.37950897 65.79678345 C0.38688029 67.75513602 0.40127477 69.71347559 0.42292023 71.67172241 C0.45210268 74.4220672 0.45594982 77.17139945 0.45410156 79.921875 C0.47567322 81.12705528 0.47567322 81.12705528 0.49768066 82.35658264 C0.4504313 88.88595172 -1.45603322 94.05195796 -5.74609375 99.0234375 C-12.55005994 104.46032503 -17.34694749 105.30243679 -26 105 C-25.59007812 104.33613281 -25.18015625 103.67226563 -24.7578125 102.98828125 C-23.94957031 101.66376953 -23.94957031 101.66376953 -23.125 100.3125 C-22.59132813 99.44238281 -22.05765625 98.57226562 -21.5078125 97.67578125 C-18.53452191 92.39934587 -17.69899175 88.11784238 -17.68115234 82.08862305 C-17.67110672 81.30760727 -17.6610611 80.52659149 -17.65071106 79.72190857 C-17.61993034 77.15185247 -17.60285826 74.58190031 -17.5859375 72.01171875 C-17.56722173 70.22523609 -17.54764801 68.43876224 -17.5272522 66.65229797 C-17.4759682 61.95882358 -17.4363225 57.26532054 -17.39910889 52.57171631 C-17.35904585 47.77885879 -17.30796399 42.98612007 -17.2578125 38.19335938 C-17.1610974 28.79565641 -17.07667846 19.39788631 -17 10 C-16.24219238 9.59442871 -15.48438477 9.18885742 -14.70361328 8.77099609 C-13.21450439 7.96782959 -13.21450439 7.96782959 -11.6953125 7.1484375 C-10.21828857 6.35445557 -10.21828857 6.35445557 -8.71142578 5.54443359 C-6.2859137 4.16285702 -2.64275611 0 0 0 Z " fill="#CED6DA" transform="translate(354,271)"/>
<path d="M0 0 C3.24464368 0.7547065 4.85619011 2.08578369 7.1328125 4.49609375 C7.62109375 7.73046875 7.62109375 7.73046875 7.4453125 11.24609375 C7.40019531 12.4165625 7.35507813 13.58703125 7.30859375 14.79296875 C7.22158203 16.13101563 7.22158203 16.13101563 7.1328125 17.49609375 C7.94105469 17.4496875 8.74929687 17.40328125 9.58203125 17.35546875 C18.28066734 17.06166681 18.28066734 17.06166681 22.3203125 19.12109375 C24.58342608 22.08655293 25.1328125 23.76120139 25.1328125 27.49609375 C23.99123949 30.62039883 23.1960684 32.79041389 20.37890625 34.66015625 C17.59339976 35.6968491 15.34709366 35.69167187 12.3828125 35.62109375 C10.90554687 35.59402344 10.90554687 35.59402344 9.3984375 35.56640625 C8.65078125 35.54320312 7.903125 35.52 7.1328125 35.49609375 C7.18501953 36.72585937 7.18501953 36.72585937 7.23828125 37.98046875 C7.26535156 39.058125 7.29242188 40.13578125 7.3203125 41.24609375 C7.37251953 42.84710938 7.37251953 42.84710938 7.42578125 44.48046875 C7.09773714 47.85713609 6.55792838 49.15856671 4.1328125 51.49609375 C-0.23437347 52.552671 -2.56855829 53.004253 -6.7421875 51.37109375 C-9.33483018 49.08346786 -10.06102529 47.86731753 -10.8671875 44.49609375 C-11.01382656 41.4874647 -10.98519225 38.50521481 -10.8671875 35.49609375 C-11.86298828 35.54830078 -11.86298828 35.54830078 -12.87890625 35.6015625 C-22.12759554 35.88509896 -22.12759554 35.88509896 -25.8671875 32.49609375 C-27.5971423 29.58662432 -27.87382088 27.82112955 -27.8046875 24.43359375 C-26.5431115 20.48065561 -25.56917963 19.42112966 -21.8671875 17.49609375 C-18.17505049 17.17413525 -14.56272809 17.26309995 -10.8671875 17.49609375 C-10.89039062 16.90441406 -10.91359375 16.31273437 -10.9375 15.703125 C-11.06289532 10.2126013 -10.68665089 6.42745143 -7.7421875 1.68359375 C-5.24849643 0.10425608 -2.90216551 0.08535781 0 0 Z " fill="#000000" transform="translate(56.8671875,178.50390625)"/>
<path d="M0 0 C2.75261237 2.66381842 3.93067127 5.39434668 4.09765625 9.26171875 C4.08605469 10.06222656 4.07445312 10.86273438 4.0625 11.6875 C4.05347656 12.49574219 4.04445313 13.30398437 4.03515625 14.13671875 C4.02355469 14.75160156 4.01195312 15.36648437 4 16 C4.66386719 15.96519531 5.32773437 15.93039063 6.01171875 15.89453125 C15.26040804 15.61099479 15.26040804 15.61099479 19 19 C20.7299548 21.90946943 21.00663338 23.6749642 20.9375 27.0625 C19.675924 31.01543814 18.70199213 32.07496409 15 34 C11.30786299 34.3219585 7.69554059 34.2329938 4 34 C4.02320313 34.59167969 4.04640625 35.18335938 4.0703125 35.79296875 C4.19630078 41.30945546 4.25877296 45.57391053 0.3125 49.8125 C-3.00939726 51.51833914 -5.31514818 51.45252566 -9 51 C-11.703125 49.39453125 -11.703125 49.39453125 -14 47 C-14.48828125 43.765625 -14.48828125 43.765625 -14.3125 40.25 C-14.24482422 38.49429688 -14.24482422 38.49429688 -14.17578125 36.703125 C-14.11777344 35.81109375 -14.05976563 34.9190625 -14 34 C-14.80824219 34.04640625 -15.61648438 34.0928125 -16.44921875 34.140625 C-25.14785484 34.43442694 -25.14785484 34.43442694 -29.1875 32.375 C-31.45061358 29.40954082 -32 27.73489236 -32 24 C-30.85842699 20.87569492 -30.0632559 18.70567986 -27.24609375 16.8359375 C-24.46058726 15.79924465 -22.21428116 15.80442188 -19.25 15.875 C-18.26515625 15.89304687 -17.2803125 15.91109375 -16.265625 15.9296875 C-15.51796875 15.95289062 -14.7703125 15.97609375 -14 16 C-14.05220703 14.77023438 -14.05220703 14.77023438 -14.10546875 13.515625 C-14.13253906 12.43796875 -14.15960938 11.3603125 -14.1875 10.25 C-14.23970703 8.64898437 -14.23970703 8.64898437 -14.29296875 7.015625 C-13.96625336 3.65263456 -13.36910987 2.36358747 -11 0 C-7.10092864 -1.29969045 -3.9523695 -1.08091942 0 0 Z " fill="#000000" transform="translate(462,26)"/>
<path d="M0 0 C1.15628906 -0.04253906 1.15628906 -0.04253906 2.3359375 -0.0859375 C5.58614677 0.5685415 6.6981188 1.69829172 8.625 4.375 C9.015625 7.609375 9.015625 7.609375 8.875 11.125 C8.83890625 12.29546875 8.8028125 13.4659375 8.765625 14.671875 C8.71921875 15.56390625 8.6728125 16.4559375 8.625 17.375 C9.51703125 17.32859375 10.4090625 17.2821875 11.328125 17.234375 C12.49859375 17.19828125 13.6690625 17.1621875 14.875 17.125 C16.61523438 17.05539062 16.61523438 17.05539062 18.390625 16.984375 C21.625 17.375 21.625 17.375 24.015625 19.109375 C26.28405656 22.30279807 26.18855706 24.44378923 26.01953125 28.25 C25.625 30.375 25.625 30.375 23.8125 32.875 C20.31296356 35.27468213 17.56778485 35.49114006 13.4375 35.4375 C12.53644531 35.42847656 11.63539063 35.41945313 10.70703125 35.41015625 C10.01996094 35.39855469 9.33289063 35.38695312 8.625 35.375 C8.67140625 36.19484375 8.7178125 37.0146875 8.765625 37.859375 C8.81976563 39.47585938 8.81976563 39.47585938 8.875 41.125 C8.92140625 42.19234375 8.9678125 43.2596875 9.015625 44.359375 C8.625 47.375 8.625 47.375 6.82421875 49.70703125 C3.74562459 52.0419508 1.45877032 52.30774087 -2.375 52.375 C-5.50980162 51.12107935 -6.91615821 50.1178867 -8.6875 47.25 C-9.63938508 43.26938965 -9.53469053 39.44710862 -9.375 35.375 C-10.24511719 35.42720703 -10.24511719 35.42720703 -11.1328125 35.48046875 C-16.32230887 35.66030278 -19.93946758 35.40414409 -24.375 32.375 C-26.54722379 29.73055365 -26.37393321 28.34512982 -26.25 24.875 C-25.2697414 20.95396559 -24.53306078 19.80427752 -21.375 17.375 C-18.359375 16.984375 -18.359375 16.984375 -15.125 17.125 C-14.04734375 17.16109375 -12.9696875 17.1971875 -11.859375 17.234375 C-10.62960937 17.30398438 -10.62960937 17.30398438 -9.375 17.375 C-9.42720703 16.37919922 -9.42720703 16.37919922 -9.48046875 15.36328125 C-9.75125798 6.53039444 -9.75125798 6.53039444 -6.375 2.375 C-3.98213116 -0.01786884 -3.28052906 0.05449384 0 0 Z " fill="#000000" transform="translate(422.375,255.625)"/>
<path d="M0 0 C1.26493286 0.09087891 1.26493286 0.09087891 2.55541992 0.18359375 C23.35495487 1.62061736 44.08751616 2.20053 64.9375 2.1875 C66.07980072 2.1882251 67.22210144 2.1889502 68.39901733 2.18969727 C79.38664569 2.18890751 90.31150021 2.15328672 101.26489258 1.22045898 C104.81797799 0.93406818 108.3111894 0.90113459 111.875 0.9375 C113.04804688 0.94652344 114.22109375 0.95554687 115.4296875 0.96484375 C116.27789062 0.97644531 117.12609375 0.98804688 118 1 C114.76015548 4.67346007 111.08999312 6.80364386 106.75 8.9375 C106.04762207 9.28377441 105.34524414 9.63004883 104.62158203 9.98681641 C80.49764802 21.52481737 52.11646229 23.79445201 26.70629883 14.99804688 C17.15886459 11.46033512 7.1505172 7.38480426 0 0 Z " fill="#FA9500" transform="translate(192,475)"/>
<path d="M0 0 C4.11293634 0.7049299 8.02610855 1.73359503 12 3 C13.31484375 3.41765625 13.31484375 3.41765625 14.65625 3.84375 C24.37652626 7.32384891 33.27011152 14.06623296 38.21875 23.265625 C41.50025799 30.34430651 42.9640339 37.1720447 42 45 C40.20353146 47.93423195 39.0558929 49.47205355 36 51 C33.1875 51.4375 33.1875 51.4375 30 51 C25.62080552 47.41702269 24.77248117 44.67831807 24.0625 39.125 C23.08592114 32.02500776 20.74586432 27.86757549 15.05078125 23.5078125 C8.72505685 19.77640788 1.88293122 18.96839622 -5.3112793 18.25073242 C-10.80149623 17.60452835 -13.38621265 16.48706013 -17 12 C-17.33 11.67 -17.66 11.34 -18 11 C-17.79078518 7.3038716 -17.5965667 4.78429748 -15.32421875 1.796875 C-10.87701786 -1.64129712 -5.35383729 -0.49429199 0 0 Z " fill="#000203" transform="translate(295,60)"/>
<path d="M0 0 C19.17708112 4.3035182 19.17708112 4.3035182 24.7265625 11.12109375 C34.34193421 29.08355195 35.66885374 51.68311348 30 71 C29.80132324 71.68433105 29.60264648 72.36866211 29.39794922 73.07373047 C25.22891728 86.96738074 25.22891728 86.96738074 20.5 90.1875 C18.4921875 91.11328125 18.4921875 91.11328125 16 92 C14.24042969 92.70189453 14.24042969 92.70189453 12.4453125 93.41796875 C8.99807598 94.74957434 5.56631892 96.0171562 2 97 C1.34 96.67 0.68 96.34 0 96 C0.75023437 95.34644531 1.50046875 94.69289063 2.2734375 94.01953125 C5.56353415 90.71436368 7.01872123 87.00584588 8.625 82.6875 C8.92784912 81.90366943 9.23069824 81.11983887 9.54272461 80.31225586 C11.9971342 73.67714861 13.2106625 67.17299256 14.00390625 60.16015625 C15 57 15 57 17.96484375 55.24609375 C18.96644531 54.83488281 19.96804688 54.42367187 21 54 C24.22566105 49.16150843 23.55091503 44.03697696 22.53515625 38.4375 C20.55014111 30.9202829 16.97821234 24.06077806 10.6875 19.3125 C7.37632192 16.46334677 7.49748023 15.22858194 7 11 C5.27391357 6.7173516 3.41556468 3.15207826 0 0 Z " fill="#0274B8" transform="translate(313,54)"/>
<path d="M0 0 C7.02635722 1.29695437 12.96092681 3.50666556 19.375 6.625 C20.29821045 7.07085449 21.2214209 7.51670898 22.17260742 7.97607422 C35.38724699 14.50357716 47.90479862 23.08305951 54 37 C56.54065159 44.84996198 55.8811256 54.15836841 52.453125 61.59375 C41.16653894 80.28336563 20.43513744 88.63829289 1 96 C0.67 95.34 0.34 94.68 0 94 C1.01578125 93.47792969 2.0315625 92.95585937 3.078125 92.41796875 C17.00364264 85.05622229 30.1026138 75.94148593 35.8125 60.5625 C39.15547215 49.08098254 38.36747949 38.04205784 32.5859375 27.46484375 C24.94939382 15.59622537 12.83387441 6.64690474 0 1 C0 0.67 0 0.34 0 0 Z " fill="#FAD533" transform="translate(401,345)"/>
<path d="M0 0 C1.15494784 2.55304258 1.98986509 4.82949847 2.75 7.5 C3.0752063 8.58571289 3.0752063 8.58571289 3.40698242 9.69335938 C4.89822905 14.9376647 5.48788514 19.53568638 5 25 C0.39718803 23.61495931 -3.68623398 21.69313111 -7.875 19.375 C-15.82217029 15.05408223 -23.89406247 11.01292846 -32 7 C-34.00045086 6.00090222 -36.00061652 5.0012321 -38 4 C-38 3.67 -38 3.34 -38 3 C-36.329375 2.94392578 -36.329375 2.94392578 -34.625 2.88671875 C-25.26513022 2.50489385 -16.41050803 1.53887955 -7.2578125 -0.4765625 C-2.12912436 -1.30059633 -2.12912436 -1.30059633 0 0 Z " fill="#EDEDED" transform="translate(291,202)"/>
<path d="M0 0 C4.94860392 0.59936507 9.22300259 2.12058951 13.75 4.125 C14.44867188 4.43195801 15.14734375 4.73891602 15.8671875 5.05517578 C21.69822133 7.70038878 27.1037557 10.83348442 32 15 C32 15.33 32 15.66 32 16 C30.10333474 15.91227545 28.20761007 15.80408699 26.3125 15.6875 C25.25675781 15.62949219 24.20101563 15.57148437 23.11328125 15.51171875 C16.73867839 14.46394839 12.34766146 9.9368207 7.5 5.9375 C5.01994495 3.93635266 5.01994495 3.93635266 2.1875 2.3125 C1.465625 1.879375 0.74375 1.44625 0 1 C0 0.67 0 0.34 0 0 Z " fill="#C6CED2" transform="translate(281,20)"/>
<path d="M0 0 C-9.98741774 6.78139755 -19.79072968 13.27633831 -32 15 C-29.41153086 12.20022726 -26.47055242 10.0884425 -23.375 7.875 C-20.04896264 5.60621239 -20.04896264 5.60621239 -17 3 C-17.99 2.34 -18.98 1.68 -20 1 C-17.41765641 0.63667026 -14.83460218 0.28405133 -12.25 -0.0625 C-11.52039063 -0.16626953 -10.79078125 -0.27003906 -10.0390625 -0.37695312 C-6.3892704 -0.85806208 -3.52327086 -1.04532842 0 0 Z " fill="#C1C9CC" transform="translate(314,169)"/>
<path d="M0 0 C4.62 0 9.24 0 14 0 C9.49430277 4.50569723 9.49430277 4.50569723 6.42578125 6.03515625 C5.76215576 6.36845947 5.09853027 6.7017627 4.41479492 7.04516602 C3.7210376 7.38088623 3.02728027 7.71660645 2.3125 8.0625 C1.60005127 8.41175537 0.88760254 8.76101074 0.15356445 9.12084961 C-13.2436202 15.58545993 -13.2436202 15.58545993 -18 14 C-17.11957031 13.48050781 -16.23914063 12.96101563 -15.33203125 12.42578125 C-14.15862432 11.72173709 -12.9854601 11.01728832 -11.8125 10.3125 C-10.9452832 9.80299805 -10.9452832 9.80299805 -10.06054688 9.28320312 C-6.18300991 6.93915535 -3.06648617 4.38988208 0 1 C0 0.67 0 0.34 0 0 Z " fill="#EC7800" transform="translate(296,476)"/>
<path d="M0 0 C-2.6855594 2.6855594 -5.37621328 3.06049974 -9 4 C-9 3.34 -9 2.68 -9 2 C-3.375 -1.125 -3.375 -1.125 0 0 Z " fill="#E9C830" transform="translate(410,437)"/>
</svg>
